<?xml version="1.0" encoding="UTF-8" standalone="no"?>
<!DOCTYPE svg PUBLIC "-//W3C//DTD SVG 1.1//EN" "http://www.w3.org/Graphics/SVG/1.1/DTD/svg11.dtd">
<svg width="100%" height="100%" viewBox="0 0 1182 1182" version="1.1" xmlns="http://www.w3.org/2000/svg" xmlns:xlink="http://www.w3.org/1999/xlink" xml:space="preserve" xmlns:serif="http://www.serif.com/" style="fill-rule:evenodd;clip-rule:evenodd;stroke-linejoin:round;stroke-miterlimit:2;">
    <g id="Armee" transform="matrix(0.850283,0,0,0.850283,88.4155,51.9174)">
        <path d="M528.43,124.242C540.195,100.712 564.244,85.849 590.551,85.849C616.858,85.849 640.907,100.712 652.672,124.242C770.239,359.375 1023.12,865.139 1130.85,1080.59C1141.61,1102.12 1140.46,1127.69 1127.81,1148.16C1115.15,1168.64 1092.8,1181.1 1068.72,1181.1L112.378,1181.1C88.307,1181.1 65.952,1168.64 53.297,1148.16C40.643,1127.69 39.492,1102.12 50.257,1080.59C157.982,865.139 410.864,359.375 528.43,124.242Z" style="fill:rgb(204,204,204);"/>
        <path d="M458.233,89.144C340.667,324.276 87.785,830.04 -19.94,1045.49C-42.869,1091.35 -40.419,1145.81 -13.464,1189.42C13.491,1233.04 61.107,1259.59 112.378,1259.59C337.884,1259.59 843.219,1259.59 1068.72,1259.59C1120,1259.59 1167.61,1233.04 1194.57,1189.42C1221.52,1145.81 1223.97,1091.35 1201.04,1045.49C1093.32,830.04 840.436,324.276 722.869,89.144C697.81,39.025 646.585,7.366 590.551,7.366C534.517,7.366 483.292,39.025 458.233,89.144L458.233,89.144ZM528.43,124.242C540.195,100.712 564.244,85.849 590.551,85.849C616.858,85.849 640.907,100.712 652.672,124.242C770.239,359.375 1023.12,865.139 1130.85,1080.59C1141.61,1102.12 1140.46,1127.69 1127.81,1148.16C1115.15,1168.64 1092.8,1181.1 1068.72,1181.1L112.378,1181.1C88.307,1181.1 65.952,1168.64 53.297,1148.16C40.643,1127.69 39.492,1102.12 50.257,1080.59C157.982,865.139 410.864,359.375 528.43,124.242Z"/>
    </g>
</svg>
