<?xml version="1.0" encoding="UTF-8" standalone="no"?>
<!DOCTYPE svg PUBLIC "-//W3C//DTD SVG 1.1//EN" "http://www.w3.org/Graphics/SVG/1.1/DTD/svg11.dtd">
<svg width="100%" height="100%" viewBox="0 0 1182 1182" version="1.1" xmlns="http://www.w3.org/2000/svg" xmlns:xlink="http://www.w3.org/1999/xlink" xml:space="preserve" xmlns:serif="http://www.serif.com/" style="fill-rule:evenodd;clip-rule:evenodd;stroke-linejoin:round;stroke-miterlimit:2;">
    <g id="Festung" transform="matrix(-0.712629,-8.72719e-17,8.72719e-17,-0.712629,1011.4,1010.7)">
        <path d="M590.551,-87.854C634.505,-87.854 1014.06,307.009 1112.48,518.502C1196.1,698.173 1181.1,1181.1 1181.1,1181.1C1181.1,1181.1 787.402,1253.11 590.551,1253.11C393.701,1253.11 0,1181.1 0,1181.1C0,1181.1 -14.996,698.173 68.62,518.502C167.046,307.009 546.598,-87.854 590.551,-87.854Z" style="fill:rgb(204,204,204);"/>
        <path d="M590.551,-171.187C580.309,-171.187 566.463,-169.439 550.194,-162.294C534.875,-155.565 507.54,-137.294 473.854,-107.713C345.25,5.22 75.517,306.177 -6.932,483.341C-95.362,673.357 -83.293,1183.69 -83.293,1183.69C-82.074,1222.94 -53.62,1256.01 -14.992,1263.08C-14.992,1263.08 388.722,1336.44 590.551,1336.44C792.38,1336.44 1196.09,1263.08 1196.09,1263.08C1234.72,1256.01 1263.18,1222.94 1264.4,1183.69C1264.4,1183.69 1276.46,673.357 1188.03,483.341C1105.59,306.177 835.853,5.22 707.248,-107.713C673.562,-137.294 646.227,-155.565 630.909,-162.294C614.64,-169.439 600.794,-171.187 590.551,-171.187L590.551,-171.187ZM590.551,-87.854C634.505,-87.854 1014.06,307.009 1112.48,518.502C1196.1,698.173 1181.1,1181.1 1181.1,1181.1C1181.1,1181.1 787.402,1253.11 590.551,1253.11C393.701,1253.11 0,1181.1 0,1181.1C0,1181.1 -14.996,698.173 68.62,518.502C167.046,307.009 546.598,-87.854 590.551,-87.854Z"/>
    </g>
</svg>
