<?xml version="1.0" encoding="UTF-8" standalone="no"?>
<!DOCTYPE svg PUBLIC "-//W3C//DTD SVG 1.1//EN" "http://www.w3.org/Graphics/SVG/1.1/DTD/svg11.dtd">
<svg width="100%" height="100%" viewBox="0 0 1182 1182" version="1.1" xmlns="http://www.w3.org/2000/svg" xmlns:xlink="http://www.w3.org/1999/xlink" xml:space="preserve" xmlns:serif="http://www.serif.com/" style="fill-rule:evenodd;clip-rule:evenodd;stroke-linecap:round;stroke-linejoin:round;stroke-miterlimit:1.5;">
    <g id="Hafen" transform="matrix(1.20641,0,0,1.0408,-164.441,-36.218)">
        <ellipse cx="625.819" cy="602.199" rx="269.212" ry="470.692" style="fill:rgb(204,204,204);"/>
        <clipPath id="_clip1">
            <ellipse cx="625.819" cy="602.199" rx="269.212" ry="470.692"/>
        </clipPath>
        <g clip-path="url(#_clip1)">
            <g transform="matrix(0.828909,0,0,1.05304,123.443,-60.4964)">
                <path d="M621.589,308.334L590.551,308.334C590.551,308.334 580.551,691.014 580.551,809.899C580.551,880.56 590.551,1021.64 590.551,1021.64L621.589,1021.64C621.589,1021.64 631.589,880.56 631.589,809.899C631.589,691.014 621.589,308.334 621.589,308.334Z" style="stroke:black;stroke-width:23.83px;"/>
            </g>
            <g transform="matrix(0.828909,0,0,0.960799,135.283,34.7982)">
                <rect x="458.073" y="374.165" width="267.427" height="16.461" style="stroke:black;stroke-width:25px;"/>
            </g>
            <g transform="matrix(7.38291e-17,-1.39757,0.828909,5.8832e-17,19.7032,1612.24)">
                <path d="M563.917,548.775C514.001,552.424 473.475,632.92 473.475,731.222C473.475,829.524 514.001,910.019 563.917,913.668C525.152,897.248 493.68,821.149 493.68,731.222C493.68,641.294 525.152,565.195 563.917,548.775Z" style="stroke:black;stroke-width:20.03px;stroke-linejoin:miter;"/>
            </g>
            <g transform="matrix(0.801658,0.298564,-0.195639,0.705762,570.104,263.713)">
                <path d="M410.773,452.751L460.843,621.48L360.704,621.48L410.773,452.751Z" style="stroke:black;stroke-width:27.72px;"/>
            </g>
            <g transform="matrix(-0.801658,0.298564,0.195639,0.705762,682.302,263.713)">
                <path d="M410.773,452.751L460.843,621.48L360.704,621.48L410.773,452.751Z" style="stroke:black;stroke-width:27.72px;"/>
            </g>
            <g transform="matrix(0.828909,0,4.60137e-17,0.960799,136.306,34.7982)">
                <circle cx="590.551" cy="238.753" r="69.58" style="fill:rgb(204,204,204);stroke:black;stroke-width:25px;stroke-linejoin:miter;"/>
            </g>
        </g>
        <path d="M625.819,75.461C553.236,75.461 485.419,115.025 431.003,184.785C357.456,279.071 308.255,430.677 308.255,602.199C308.255,773.721 357.456,925.328 431.003,1019.61C485.419,1089.37 553.236,1128.94 625.819,1128.94C698.403,1128.94 766.22,1089.37 820.636,1019.61C894.183,925.328 943.384,773.721 943.384,602.199C943.384,430.677 894.183,279.071 820.636,184.785C766.22,115.025 698.403,75.461 625.819,75.461ZM625.819,131.508C774.401,131.508 895.031,342.417 895.031,602.199C895.031,861.981 774.401,1072.89 625.819,1072.89C477.237,1072.89 356.608,861.981 356.608,602.199C356.608,342.417 477.237,131.508 625.819,131.508Z"/>
    </g>
</svg>
