<?xml version="1.0" encoding="UTF-8" standalone="no"?>
<!DOCTYPE svg PUBLIC "-//W3C//DTD SVG 1.1//EN" "http://www.w3.org/Graphics/SVG/1.1/DTD/svg11.dtd">
<svg width="100%" height="100%" viewBox="0 0 100 100" version="1.1" xmlns="http://www.w3.org/2000/svg" xmlns:xlink="http://www.w3.org/1999/xlink" xml:space="preserve" xmlns:serif="http://www.serif.com/" style="fill-rule:evenodd;clip-rule:evenodd;stroke-linejoin:round;stroke-miterlimit:2;">
    <path d="M100,10C100,4.477 95.523,0 90,-0L10,0C4.477,0 0,4.477 -0,10L0,90C0,95.523 4.477,100 10,100L90,100C95.523,100 100,95.523 100,90L100,10Z" style="fill:rgb(102,0,0);"/>
    <g transform="matrix(111.13,0,0,111.13,2.99184,90.0069)">
        <path d="M0.215,-0L0.215,-0.408L0.082,-0.72L0.079,-0.72L0.079,-0L0.215,-0ZM0.371,-0.115L0.475,-0.115L0.734,-0.72L0.609,-0.72L0.423,-0.298L0.237,-0.72L0.112,-0.72L0.371,-0.115ZM0.764,-0.72L0.631,-0.408L0.631,-0L0.767,-0L0.767,-0.72L0.764,-0.72Z" style="fill:white;fill-rule:nonzero;"/>
    </g>
</svg>
