<svg width="403.662" height="89.795" viewBox="0 0 403.662 89.795" xmlns="http://www.w3.org/2000/svg"><g id="svgGroup" stroke-linecap="round" fill-rule="evenodd" font-size="9pt" stroke="#000" stroke-width="0.25mm" fill="black" style="stroke:#000;stroke-width:0.25mm;fill:black"><path d="M 316.211 78.467 L 316.211 32.715 L 306.641 32.715 L 306.641 19.775 L 324.854 19.775 L 337.793 32.715 L 337.793 76.758 L 324.854 89.795 L 296.387 89.795 L 289.893 83.252 L 289.893 78.467 L 316.211 78.467 Z M 38.477 71.631 L 0.049 6.836 L 22.998 6.836 L 40.381 35.645 L 54.053 12.207 L 54.053 44.824 L 38.477 71.631 Z M 144.873 71.631 L 123.779 71.631 L 123.779 32.715 L 93.066 32.715 L 93.066 26.27 L 99.561 19.775 L 131.934 19.775 L 144.873 32.715 L 144.873 71.631 Z M 272.363 71.631 L 251.27 71.631 L 251.27 32.715 L 220.557 32.715 L 220.557 26.27 L 227.051 19.775 L 259.424 19.775 L 272.363 32.715 L 272.363 71.631 Z M 347.51 71.631 L 347.51 0 L 369.092 0 L 369.092 71.631 L 347.51 71.631 Z M 78.809 71.631 L 57.227 71.631 L 57.227 6.836 L 78.809 6.836 L 78.809 71.631 Z M 382.031 71.631 L 382.031 32.715 L 372.51 32.715 L 372.51 26.172 L 378.857 19.775 L 390.674 19.775 L 403.662 32.715 L 403.662 71.631 L 382.031 71.631 Z M 303.223 59.521 L 312.793 59.521 L 312.793 65.234 L 306.348 71.631 L 294.58 71.631 L 281.641 58.691 L 281.641 32.715 L 294.58 19.775 L 303.223 19.775 L 303.223 59.521 Z M 176.172 71.631 L 154.59 71.631 L 154.59 19.775 L 176.172 19.775 L 176.172 71.631 Z M 20.166 71.631 L 0 71.631 L 0 12.842 L 20.166 46.68 L 20.166 71.631 Z M 97.412 41.455 L 120.361 41.455 L 120.361 50.439 L 109.229 50.439 L 109.229 59.521 L 120.361 59.521 L 120.361 65.234 L 113.916 71.631 L 97.412 71.631 L 88.721 63.086 L 88.721 50.098 L 97.412 41.455 Z M 224.902 41.455 L 247.852 41.455 L 247.852 50.439 L 236.719 50.439 L 236.719 59.521 L 247.852 59.521 L 247.852 65.234 L 241.406 71.631 L 224.902 71.631 L 216.211 63.086 L 216.211 50.098 L 224.902 41.455 Z M 188.818 45.313 L 188.818 32.715 L 179.639 32.715 L 179.639 27.051 L 186.865 19.775 L 199.951 19.775 L 210.449 31.885 L 210.449 45.313 L 188.818 45.313 Z" vector-effect="non-scaling-stroke"/></g></svg>